<svg id="Layer_1" data-name="Layer 1" xmlns="http://www.w3.org/2000/svg" xmlns:xlink="http://www.w3.org/1999/xlink" viewBox="0 0 1039.72 1156.51"><defs><style>.cls-1{fill:none;}.cls-2{clip-path:url(#clip-path);}.cls-3{fill:#17033f;}.cls-4{fill:#e61c5d;}.cls-5{fill:#cc1154;}.cls-6{fill:#bf1150;}.cls-7{fill:#af1252;}.cls-8{fill:#d61866;}.cls-9{fill:#f9e595;}.cls-10{fill:#e5c665;}.cls-11{fill:#700361;}.cls-12{fill:#44033e;}.cls-13{fill:#ffecae;}.cls-14{fill:url(#linear-gradient);}.cls-15{fill:#3a0088;}.cls-16{fill:#310477;}.cls-17{fill:#4404a8;}.cls-18{fill:#840979;}.cls-19{fill:#8c0c86;}.cls-20{fill:#930077;}.cls-21{fill:#a80491;}.cls-22{fill:#330331;}.cls-23{fill:#f4226e;}.cls-24{fill:#a50a49;}.cls-25{fill:#ead07f;}.cls-26{fill:#f2d781;}.cls-27{fill:#d1b054;}</style><clipPath id="clip-path" transform="translate(-339.14 -13.16)"><rect class="cls-1" x="259.7" width="1022.4" height="1022.98" transform="translate(1541.81 1022.98) rotate(180)"/></clipPath><linearGradient id="linear-gradient" x1="1062.39" y1="569.34" x2="1062.39" y2="569.34" gradientTransform="translate(-34.19)" gradientUnits="userSpaceOnUse"><stop offset="0" stop-color="#40a8c4"/><stop offset="1" stop-color="#4a0e5c"/></linearGradient></defs><title>back</title><g class="cls-2"><path class="cls-3" d="M438.86,975.09c-21.28-31.37-24.69-95.78.75-118.19,16.19-14.27,38.61-7.68,52.11-27.71,18.32-27.17,5-74.36-6.54-109.58-16.35-50-27.2-105.84-24.86-161.94s19.27-112.31,49.13-143.15C554.56,368,616.25,389.33,662.12,434c32.53,31.69,61.9,74.67,98.94,89.68,42.24,17.11,90.2-8.58,117-62.7,18-36.39,34.14-90,63.36-86.06,17.16,2.31,30,25.36,45.87,35.9,17.39,11.55,38.76,6.54,53.26-12.48s21.49-51.19,17.42-80.21c-3.2-22.81-12.37-42.19-19.62-62.58-11.65-32.82-18.61-69.74-20.21-107.25-1.42-33.26,3.79-72.57,23-86.7,9.71-7.14,21.06-6.09,31.51-2.39,36.36,12.87,65.87,54.69,89.07,100.6,10.67,21.12,25.6,46.22,41.74,37.1,15.29-8.65,17.66-40.7,27.22-61.38,18-38.88,59.74-27.27,79,10S1332.12,234,1334.41,282q7.81,163.62,15.62,327.25c6.69,140.26,13.12,284.51-13.56,418.75-4.76,24-11,48.5-23.25,64.61-11.75,15.5-27.39,21.1-42.4,26-65.57,21.54-131.73,39.71-198.54,47-88.58,9.69-177.5.21-266.09-9.27-50-5.34-100.2-10.76-148.81-29.66-43.11-16.76-88.55-42-126.72-78.15C502.26,1021.62,462.62,1010.12,438.86,975.09Z" transform="translate(-339.14 -13.16)"/><polygon class="cls-4" points="373.19 945.47 285.66 1025.54 385.76 1095.43 616.05 1058.58 431.77 922.6 373.19 945.47"/><path class="cls-4" d="M1020.45,584.74s.16,1.84.52,5.19c3,28.33,19.59,164.65,65.3,211.18,51.12,52,73.73,74.92,147.19,104.15s137.23,90.23,145.3,138.52-499.68,39.39-499.68,39.39l66.19-513.83,64-94.9,11.3,112.14Z" transform="translate(-339.14 -13.16)"/><path class="cls-5" d="M879.08,1083.16l10.35-80.41c287.14,43.23,344.45-33.84,348-95.82,71.77,29.81,133.33,89.45,141.29,136.86C1386.82,1092.09,879.08,1083.16,879.08,1083.16Z" transform="translate(-339.14 -13.16)"/><path class="cls-6" d="M725.71,728.45,598.16,919.24s179.21,91.5,203.42,128.35,58.93-166.48,58.93-166.48L840.33,709.55Z" transform="translate(-339.14 -13.16)"/><path class="cls-7" d="M860.51,881.13s-34.7,203.34-58.91,166.47C794,1036,771,1018.93,743,1001.08c-84.58-101.57,16.19-240.31,52.54-284.17l44.78-7.36Z" transform="translate(-339.14 -13.16)"/><path class="cls-8" d="M741.56,725.84,608.66,924.68c-6.63-3.45-10.48-5.43-10.48-5.43l127.53-190.8Z" transform="translate(-339.14 -13.16)"/><path class="cls-7" d="M1024.52,564.3s-38.89,145.25,44.26,293.94c0,0-108.07,34.92-138.74,142.94l79.27-469.55Z" transform="translate(-339.14 -13.16)"/><path class="cls-6" d="M1068.77,858.26s-15,4.86-35.49,16.61c-59.84-165.43-12.87-319.36-12.87-319.36l4.11,8.77S985.65,709.55,1068.77,858.26Z" transform="translate(-339.14 -13.16)"/><path class="cls-9" d="M775.71,772.5s12.15,261.11,25.87,319.57c10.18,43.33,63.82,30.8,90.9,21.42,9.41-3.27,16.61-15.19,18.18-30.16h0a327,327,0,0,1,22.28-89.56c7-17.24,15.39-48.47,22.25-105,15.11-124.55,58.58-240,48.2-319.4s-51.66-89.81-51.66-89.81L770.91,670.15Z" transform="translate(-339.14 -13.16)"/><path class="cls-10" d="M955.2,888.76c-6.86,56.55-15.22,87.77-22.25,105a316.8,316.8,0,0,0-14.07,43,338.53,338.53,0,0,0-8.22,46.53c-1.56,15-8.76,26.89-18.18,30.18-27.06,9.4-80.73,21.88-90.88-21.41-4.54-19.32-8.89-60.68-12.7-107.46C904.19,1082.43,973,696.49,996.13,535.71a193.37,193.37,0,0,1,7.27,33.63C1013.78,648.71,970.29,764.22,955.2,888.76Z" transform="translate(-339.14 -13.16)"/><path class="cls-11" d="M689.43,418.9s-12.16-1.77-14.58,17.36-14.34,75.56,28.75,192.22,43.09-133.7,43.09-133.7l6.46-129.63Z" transform="translate(-339.14 -13.16)"/><path class="cls-12" d="M701.69,404.81s-20.38,1-18,68.36S707.9,611.53,707.9,611.53l75.93-179Z" transform="translate(-339.14 -13.16)"/><path class="cls-9" d="M738,157.42s-43.39,93.19-37.84,198.25-6.62,116.92,0,150.81,7.7,105,7.7,105L738,728.45l180.82-61L949,525.11,967.3,255.7l-28-154.2-81.8-20.33-99,45.75S742.36,147.26,738,157.42Z" transform="translate(-339.14 -13.16)"/><path class="cls-10" d="M826.28,591.59a66.69,66.69,0,0,1-3.65,14.46c-6.7,17.6-22.06,20.37-32,7.21-11.81-15.56-31-30.71-50.39-2.56-4.17,6.06-10.87,4.54-13.89-3.08a3.85,3.85,0,0,1-.27-.68,78.58,78.58,0,0,1-4.44-37.81A71.53,71.53,0,0,0,726,586.94a3.85,3.85,0,0,0,.27.68c3,7.62,9.72,9.14,13.89,3.08,19.37-28.15,38.58-13,50.39,2.56,10,13.16,25.34,10.39,32-7.21a66,66,0,0,0,3.61-14.25A71.65,71.65,0,0,1,826.28,591.59Z" transform="translate(-339.14 -13.16)"/><path class="cls-13" d="M749.92,157.4s-43.38,93.21-37.84,198.27-6.6,116.91,0,150.8,7.73,105.06,7.73,105.06L749,724.74l-10.91,3.71L707.9,611.53s-1.06-71.17-7.7-105.06,5.54-45.74,0-150.8S738.05,157.4,738.05,157.4c4.31-10.13,20.43-30.49,20.43-30.49l12-5.54C763.56,132.7,752.78,150.66,749.92,157.4Z" transform="translate(-339.14 -13.16)"/><path class="cls-14" d="M1028.2,569.34" transform="translate(-339.14 -13.16)"/><path class="cls-15" d="M1018,139.07c-50.18-93.68-98.34-96.76-113.67-95a107.58,107.58,0,0,1-16.88.89c-41.49-1.67-49.12-16.77-50.25-24.7-.47-3.24-2.32-5.59-4.41-6.06-67.57-15.4-95.43,141.88-96.22,146.57,16.12-28,27.79-8.35,27.79-8.35,73.17-77.33,158.84-19.89,158.84-19.89-21.55,103.54,41.27,144.74,41.27,144.74-6.74,206-97.09,262.81-97.09,262.81-52.24-98-130.18-56.39-130.18-56.39C662.82,523.5,701,679.05,712.11,718.63a96.2,96.2,0,0,0,8.72,21.88c45.21,77.86,173.08-8,173.08-8C993,664.33,1030.63,478.8,1038.62,423.08q2-14.25,4.45-28.35C1070.79,231.6,1018,139.07,1018,139.07ZM826.28,591.59a66.69,66.69,0,0,1-3.65,14.46c-6.7,17.6-22.06,20.37-32,7.21-11.81-15.56-31-30.71-50.39-2.56-4.17,6.06-10.87,4.54-13.89-3.08a3.85,3.85,0,0,1-.27-.68c-12.34-31.44-1.09-72.43,21.89-80.05,15.13-5,34.93-5.33,58.21,8.46C820.57,543.91,829.56,567.83,826.28,591.59Z" transform="translate(-339.14 -13.16)"/><path class="cls-16" d="M1043.07,394.73q-2.4,14.1-4.45,28.35c-8,55.72-45.64,241.25-144.71,309.44,0,0-127.87,85.85-173.08,8a96.2,96.2,0,0,1-8.72-21.88c-1.72-6.06-4.05-14.88-6.53-25.64,45.77,75.77,172.31-9.19,172.31-9.19C977,615.61,1014.61,430.08,1022.6,374.36q2-14.25,4.45-28.35c14.62-86.05,6.83-152.48-3.79-196C1035.87,178.86,1065.25,264.18,1043.07,394.73Z" transform="translate(-339.14 -13.16)"/><path class="cls-17" d="M993.41,99.7C955.3,53.8,921.7,58.5,914.14,60.33c-1.59.36-3.18.73-4.81,1-54.34,10-71.5-10.91-76.92-24.51-2.65-6.65-7.4-10.58-12.36-9.76-52.64,8.66-64,94.81-66.81,118.71-4.54.26-10.25,3.81-16.68,15,.79-4.69,28.65-162,96.22-146.57,2.09.47,3.94,2.82,4.41,6.06,1.13,7.93,8.76,23,50.25,24.7a107.58,107.58,0,0,0,16.88-.89C917.12,42.63,952.78,44.51,993.41,99.7Z" transform="translate(-339.14 -13.16)"/><path class="cls-17" d="M860.77,528.67c-55.06-66.06-121.89-30.45-121.89-30.45-27.13,14.52-40.6,43.13-46,76.4,2.33-39.06,13.93-74.67,44.32-90.91C737.19,483.71,808.83,445.48,860.77,528.67Z" transform="translate(-339.14 -13.16)"/><path class="cls-11" d="M1028.69,303.73s9.67-77.29-1.09-105.15c0,0,41.52,5.9,38.26,114.41Z" transform="translate(-339.14 -13.16)"/><path class="cls-18" d="M1041.14,306.85l-12.44-3.14s9.66-77.28-1.09-105.11a21.46,21.46,0,0,1,7.83,3.5C1046.45,231.65,1042.44,291.29,1041.14,306.85Z" transform="translate(-339.14 -13.16)"/><path class="cls-12" d="M1027.6,198.58s16.16,12,8.08,106.89l-7-1.74S1038.9,238.3,1027.6,198.58Z" transform="translate(-339.14 -13.16)"/><path class="cls-11" d="M1040,570.6c-.43,2.26-10.35,4.43-11.6,4.82-8.49,2.63-17.5,3.87-26.06,1.19-26.3-8.24-39.91-68-44.66-104.48-3.63-27.93-3.46-57.31,1.74-84.61,10.85-56.95,42.87-93.11,80.58-93.11C1092.71,294.41,1040,570.38,1040,570.6Z" transform="translate(-339.14 -13.16)"/><path class="cls-19" d="M1009.23,576.6a31.33,31.33,0,0,0,6.87,1.31,35.32,35.32,0,0,1-13.77-1.31c-26.3-8.25-39.9-68-44.64-104.49-3.65-27.93-3.48-57.28,1.72-84.59,10.85-57,42.86-93.1,80.57-93.1a10.62,10.62,0,0,1,2.26.21c-35.66,2.82-65.54,38.27-75.93,92.89-5.2,27.31-5.37,56.66-1.72,84.59C969.33,508.61,982.93,568.35,1009.23,576.6Z" transform="translate(-339.14 -13.16)"/><ellipse class="cls-12" cx="696.55" cy="419.35" rx="55.97" ry="138.1"/><ellipse class="cls-20" cx="700.85" cy="419.35" rx="51.66" ry="138.1"/><path class="cls-21" d="M1069.43,319c-7.23-10.28-15.52-16.13-24.28-16.13-28.52,0-51.64,61.82-51.64,138.11,0,47,8.76,88.46,22.19,113.42-16.28-23.24-27.36-69.14-27.36-121.93,0-76.24,23.12-138.06,51.64-138.06C1050.93,294.42,1061.08,303.5,1069.43,319Z" transform="translate(-339.14 -13.16)"/><ellipse class="cls-11" cx="714.3" cy="419.35" rx="38.21" ry="107.6"/><path class="cls-12" d="M1086.28,432.48c0,54.78-15.92,99.16-35.52,99.16a12.94,12.94,0,0,1-4.84-.94c-17.35-6.58-30.68-48-30.68-98.22,0-44.54,10.51-82.19,25-94.72,3.31-2.87,6.86-4.39,10.51-4.39C1070.36,333.37,1086.28,377.76,1086.28,432.48Z" transform="translate(-339.14 -13.16)"/><path class="cls-22" d="M1070.93,436c0,44.54-10.52,82.19-25,94.72-17.35-6.58-30.68-48-30.68-98.22,0-44.54,10.51-82.19,25-94.72C1057.59,344.34,1070.93,385.8,1070.93,436Z" transform="translate(-339.14 -13.16)"/></g><path class="cls-4" d="M408.67,823.94a146.93,146.93,0,0,0,11.71,26.67c6.67,11.76,14.57,21.25,23.22,28.3,22.88,18.67,51,20.14,75.6,0,40.17-32.88,55.82-110.8,34.93-174-12.61-38.17-35.63-62.25-60.73-68.12a52.38,52.38,0,0,0-16.46-1.24c-11.31,1-22.66,5.61-33.38,14.39C403.4,682.77,387.77,760.67,408.67,823.94Z" transform="translate(-339.14 -13.16)"/><path class="cls-5" d="M520.39,877.85c-24.41,20.74-52.52,19.94-75.58,1.79-8.72-6.84-16.71-16.16-23.48-27.75a128.36,128.36,0,0,1-7.54-15,93,93,0,0,0,19.07,20.81c23.06,18.15,51.17,18.94,75.61-1.79,39.85-33.85,54.73-112.12,33.26-174.85-1.33-3.89-2.75-7.56-4.31-11.13a137.1,137.1,0,0,1,16.23,33C575.15,765.74,560.24,844,520.39,877.85Z" transform="translate(-339.14 -13.16)"/><path class="cls-23" d="M515.78,647.26a59.07,59.07,0,0,0-15.19-5.9,51.45,51.45,0,0,0-16.45-1.25c-11.31.94-22.69,5.59-33.4,14.36-40.17,32.89-55.79,110.8-34.89,174.09a149.39,149.39,0,0,0,11.7,26.63,99.42,99.42,0,0,0,23.22,28.3c1.06.89,2.16,1.73,3.25,2.51a69.25,69.25,0,0,1-10.41-7.1c-8.66-7-16.55-16.56-23.22-28.3A146.45,146.45,0,0,1,408.68,824c-20.89-63.28-5.27-141.19,34.89-174.09,10.72-8.77,22.06-13.42,33.37-14.36a51.15,51.15,0,0,1,16.45,1.26A62.32,62.32,0,0,1,515.78,647.26Z" transform="translate(-339.14 -13.16)"/><path class="cls-6" d="M507.06,826.78c-8.92,7.32-19.44,4.86-26.6-5a38,38,0,0,1-5.61-11.07c-6.07-18.43-1.52-41.09,10.18-50.7,10.92-8.88,24.12-3.29,30.82,12.38.5,1.14,1,2.4,1.39,3.65C523.31,794.51,518.77,817.18,507.06,826.78Z" transform="translate(-339.14 -13.16)"/><path class="cls-24" d="M507.06,826.78c-8.92,7.32-19.44,4.86-26.6-5a34.13,34.13,0,0,1-1.33-3.44c-6.07-18.44-1.52-41.15,10.18-50.71,8.89-7.31,19.37-4.9,26.54,4.76.5,1.14,1,2.4,1.39,3.65C523.31,794.51,518.77,817.18,507.06,826.78Z" transform="translate(-339.14 -13.16)"/><path class="cls-6" d="M503.11,692.74C498.44,696.61,493,695.61,489,691a20.92,20.92,0,0,1-3.91-7.21c-3.42-10.34-.86-23,5.67-28.41,5.77-4.69,12.7-2.19,16.55,5.49a17.31,17.31,0,0,1,1.49,3.5C512.2,674.68,509.65,687.36,503.11,692.74Z" transform="translate(-339.14 -13.16)"/><path class="cls-24" d="M503.11,692.74C498.44,696.61,493,695.61,489,691a19.09,19.09,0,0,1-1.49-3.5c-3.42-10.34-.86-23,5.67-28.41,4.68-3.86,10.15-2.87,14.13,1.78a17.31,17.31,0,0,1,1.49,3.5C512.2,674.68,509.65,687.36,503.11,692.74Z" transform="translate(-339.14 -13.16)"/><path class="cls-6" d="M471.73,719.84a3.08,3.08,0,0,1-3.48.42,5.76,5.76,0,0,1-2.55-3.45c-1.16-3.44-.3-7.72,1.89-9.5a3.22,3.22,0,0,1,4.81.63,6.75,6.75,0,0,1,1.26,2.35C474.79,713.79,474,718,471.73,719.84Z" transform="translate(-339.14 -13.16)"/><path class="cls-24" d="M471.73,719.84a3.08,3.08,0,0,1-3.48.42,8,8,0,0,1-1.26-2.35c-1.13-3.44-.26-7.73,1.93-9.5a3,3,0,0,1,3.48-.47,6.75,6.75,0,0,1,1.26,2.35C474.79,713.79,474,718,471.73,719.84Z" transform="translate(-339.14 -13.16)"/><path class="cls-6" d="M435.58,779.89c-4.94,4.08-10.68,3.19-15-1.46l-.06,0a22.81,22.81,0,0,1-4.55-8.2c-3.71-11.23-.93-25,6.17-30.81,6.17-5.06,13.53-2.45,17.81,5.54a26.25,26.25,0,0,1,1.76,4.18C445.47,760.26,442.68,774.1,435.58,779.89Z" transform="translate(-339.14 -13.16)"/><path class="cls-24" d="M435.58,779.89c-4.94,4.08-10.68,3.19-15-1.46l-.06,0a25.68,25.68,0,0,1-1.86-4.28c-3.68-11.23-.93-25,6.17-30.81,5-4.13,10.84-3.19,15.12,1.62a26.25,26.25,0,0,1,1.76,4.18C445.47,760.26,442.68,774.1,435.58,779.89Z" transform="translate(-339.14 -13.16)"/><path class="cls-9" d="M341.65,815.75c.59,1.57,1.16,3.26,1.84,4.67s1.36,2.85,2.1,4.08A49.45,49.45,0,0,0,355,836.19c1.63,1.58,3.23,2.79,4.88,4.12,1.62,1.15,3.26,2.37,4.88,3.34s3.27,2,4.89,2.81a53.49,53.49,0,0,0,4.9,2.37c13.07,5.76,26.09,8.24,39.05,9.39q6,.48,11.87.52c21.87.26,43.5-3.69,64.7-10.44a239.47,239.47,0,0,0,66.8-33.88c2-1.45,4.06-3,6.07-4.52a207.48,207.48,0,0,0,17.16-14.83A173.17,173.17,0,0,0,596.54,777c1.32-1.69,2.63-3.38,3.91-5.23s2.56-3.7,3.8-5.63,2.44-4,3.64-6.13,2.36-4.35,3.46-6.81a79.79,79.79,0,0,0,5.7-16.62c.36-1.61.62-3.39.9-5.07s.36-3.66.52-5.46,0-3.83,0-5.72-.37-3.84-.62-5.74-.76-3.68-1.24-5.42-1.09-3.36-1.75-4.83-1.34-2.94-2.08-4.16-1.5-2.45-2.28-3.49a36.4,36.4,0,0,0-9.74-9c-6.55-4.27-13-6-19.41-7.41-12.79-2.53-25.33-2.18-37.76-1.1l-.57.07c1.26,2.26,2.49,4.62,3.65,7.06a105.41,105.41,0,0,1,32.75,8.54c1.43.67,2.84,1.31,4.22,2.13s2.72,1.6,4,2.45,2.61,1.84,3.86,2.77a47.11,47.11,0,0,1,3.55,3.19,28.3,28.3,0,0,1,5.49,7.32,15.55,15.55,0,0,1,1.8,6.91,19.41,19.41,0,0,1-1.39,6.51A37.93,37.93,0,0,1,596.8,734c-3.47,5.34-8.15,10.09-12.92,14.5a152.47,152.47,0,0,1-20.51,15.39c-3.65,2.34-7.35,4.54-11.07,6.67-22.14,12.31-45.22,21.71-68.49,29.34S437,813.18,413.52,815.66q-3.61.35-7.21.55A114.63,114.63,0,0,1,379,815.05c-5.51-1.06-11-2.54-15.53-5.3a22.34,22.34,0,0,1-5.84-4.65,13.71,13.71,0,0,1-2.93-5.18,17.7,17.7,0,0,1-.07-7.54,44.7,44.7,0,0,1,3.23-10.18c.71-1.74,1.6-3.41,2.45-5.13s1.84-3.35,2.86-4.94,2-3.25,3.12-4.79,2.2-3.07,3.34-4.54a150.34,150.34,0,0,1,14.7-16.45,187.13,187.13,0,0,1,16-14c.63-.5,1.27-1,1.92-1.46.42-2.53.9-5,1.43-7.5-1.69.89-3.37,1.82-5,2.76-11.68,6.78-23.28,14.27-34.39,24.54-5.5,5.26-11,10.9-16,18.88a60.89,60.89,0,0,0-6.66,14.32c-.46,1.43-.83,3.05-1.23,4.6s-.59,3.39-.86,5.1-.29,3.67-.39,5.51.1,3.82.21,5.74.51,3.79.88,5.63S341.09,814.11,341.65,815.75Z" transform="translate(-339.14 -13.16)"/><path class="cls-25" d="M618.47,726.06c-.16,1.82-.26,3.76-.53,5.48s-.53,3.45-.89,5.06a80.23,80.23,0,0,1-5.71,16.61c-1.09,2.45-2.29,4.6-3.45,6.79s-2.39,4.23-3.65,6.16-2.49,3.86-3.78,5.64-2.59,3.5-3.91,5.22a176.53,176.53,0,0,1-16.39,18.07A206.52,206.52,0,0,1,563,809.92c-2,1.51-4,3-6.07,4.49a238.71,238.71,0,0,1-66.8,33.89C469,855,447.32,859,425.43,858.74c-3.95,0-7.89-.21-11.87-.52-12.94-1.15-26-3.66-39-9.4-1.63-.68-3.25-1.46-4.91-2.35s-3.25-1.83-4.88-2.82-3.25-2.19-4.87-3.34a62.56,62.56,0,0,1-4.88-4.13,48.56,48.56,0,0,1-9.38-11.69c-.73-1.2-1.43-2.72-2.13-4.08s-1.22-3.08-1.82-4.64-1-3.5-1.43-5.28-.59-3.76-.86-5.64c-.07-.83-.1-1.72-.17-2.56.4,1.57.83,3.29,1.33,4.76s1.16,3.23,1.82,4.64,1.36,2.88,2.13,4.13a49.41,49.41,0,0,0,9.35,11.64,62.71,62.71,0,0,0,4.88,4.13c1.62,1.15,3.28,2.4,4.91,3.34a47,47,0,0,0,4.87,2.82,42.94,42.94,0,0,0,4.91,2.35c13.07,5.8,26.1,8.25,39,9.4,4,.31,7.93.52,11.87.52,21.89.26,43.49-3.65,64.72-10.44a240.54,240.54,0,0,0,66.8-33.84c2-1.46,4-3,6.07-4.54A208.39,208.39,0,0,0,579,786.37a177.59,177.59,0,0,0,16.39-18.07c1.29-1.67,2.62-3.39,3.88-5.22s2.59-3.71,3.81-5.64,2.46-4,3.65-6.11c1.16-2.24,2.36-4.39,3.45-6.84a80.23,80.23,0,0,0,5.71-16.61c.36-1.61.63-3.39.89-5.06s.37-3.66.53-5.48,0-3.5,0-5.28c.2.84.37,1.73.53,2.56.23,1.88.5,3.81.63,5.69S618.57,724.23,618.47,726.06Z" transform="translate(-339.14 -13.16)"/><path class="cls-9" d="M1251.17,690.59a124.34,124.34,0,0,1,6.14,21.28,142.39,142.39,0,0,1,2.52,33.09c-1.13,29.2-11,57.11-28,73.63-27.8,26.94-64.21,13.34-81.33-30.42-10.33-26.41-11.27-57.75-4.28-84.36a118.91,118.91,0,0,1,5.6-16.5c4.57-10.66,10.6-20,18-27.18C1197.64,633.18,1234,646.81,1251.17,690.59Z" transform="translate(-339.14 -13.16)"/><path class="cls-26" d="M1259.82,745c-1.13,29.19-10.94,57.12-28,73.63-26.21,25.37-60,14.77-78.15-23.14,18.94,29.25,48.76,35.56,72.34,12.69,17-16.5,26.87-44.43,28-73.62a142,142,0,0,0-2.52-33.06,121.16,121.16,0,0,0-6.14-21.3c-1-2.51-2-4.86-3.12-7.16a96.2,96.2,0,0,1,8.92,17.6,121,121,0,0,1,6.14,21.31A141.38,141.38,0,0,1,1259.82,745Z" transform="translate(-339.14 -13.16)"/><path class="cls-10" d="M1215.84,787.45c-6.3,6.17-14.16,5.07-19.67-1.72a26.26,26.26,0,0,1-4-7.1c-5-12.79-2.46-29.45,5.64-37.34,7.89-7.62,18.17-4.07,23.31,7.94.1.31.24.63.37.94C1226.49,762.91,1223.93,779.62,1215.84,787.45Z" transform="translate(-339.14 -13.16)"/><path class="cls-27" d="M1215.84,787.45c-6.3,6.17-14.16,5.07-19.67-1.72-.13-.31-.3-.68-.43-1-5-12.74-2.45-29.45,5.64-37.29,6.33-6.16,14.23-5.06,19.73,1.83.1.31.24.63.37.94C1226.49,762.91,1223.93,779.62,1215.84,787.45Z" transform="translate(-339.14 -13.16)"/><path class="cls-10" d="M1172.46,743.17c-3.35,3.29-7.53,2.87-10.58-.53a13.61,13.61,0,0,1-2.69-4.43c-2.78-7.16-1.36-16.5,3.19-20.89,4.18-4.07,9.58-2.45,12.6,3.5a15,15,0,0,1,.66,1.46C1178.43,729.43,1177,738.78,1172.46,743.17Z" transform="translate(-339.14 -13.16)"/><path class="cls-27" d="M1172.46,743.17c-3.35,3.29-7.53,2.87-10.58-.53a10.94,10.94,0,0,1-.7-1.51c-2.78-7.15-1.39-16.5,3.15-20.89,3.42-3.29,7.6-2.87,10.65.58a15,15,0,0,1,.66,1.46C1178.43,729.43,1177,738.78,1172.46,743.17Z" transform="translate(-339.14 -13.16)"/><path class="cls-10" d="M1173.79,704.61a3.76,3.76,0,0,1-5.7-.09,6.88,6.88,0,0,1-1.78-2.7c-1.55-4-.77-9.24,1.78-11.68,2.32-2.27,5.37-1.4,7,1.92a3.73,3.73,0,0,1,.44.87C1177.11,696.94,1176.28,702.17,1173.79,704.61Z" transform="translate(-339.14 -13.16)"/><path class="cls-27" d="M1173.79,704.61a3.41,3.41,0,0,1-6-.79c-1.55-4-.77-9.24,1.78-11.76a3.41,3.41,0,0,1,6,.87C1177.11,696.94,1176.28,702.17,1173.79,704.61Z" transform="translate(-339.14 -13.16)"/><path class="cls-10" d="M1236.31,740.64a3.87,3.87,0,0,1-5.86-.09,6.91,6.91,0,0,1-1.82-2.78c-1.59-4.12-.8-9.49,1.82-12,2.39-2.32,5.52-1.43,7.22,2a4,4,0,0,1,.46.9C1239.72,732.76,1238.87,738.13,1236.31,740.64Z" transform="translate(-339.14 -13.16)"/><path class="cls-27" d="M1236.31,740.64a3.48,3.48,0,0,1-6.2-.81c-1.59-4.12-.8-9.49,1.82-12.09a3.8,3.8,0,0,1,5.74,0,4,4,0,0,1,.46.9C1239.72,732.76,1238.87,738.13,1236.31,740.64Z" transform="translate(-339.14 -13.16)"/><path class="cls-10" d="M1223.9,700.46c-3,2.92-6.63,3.19-9.65,1.1a13.42,13.42,0,0,1-4.75-6.48c-3-7.73-1.49-17.86,3.42-22.66,3.95-3.81,8.89-3,12.24,1.46a15.63,15.63,0,0,1,2.16,3.92C1230.33,685.58,1228.81,695.71,1223.9,700.46Z" transform="translate(-339.14 -13.16)"/><path class="cls-27" d="M1223.9,700.46c-3,2.92-6.63,3.19-9.65,1.1a15,15,0,0,1-2.19-4c-3-7.73-1.49-17.86,3.41-22.66,3-2.93,6.67-3.14,9.69-1a15.63,15.63,0,0,1,2.16,3.92C1230.33,685.58,1228.81,695.71,1223.9,700.46Z" transform="translate(-339.14 -13.16)"/><path class="cls-4" d="M1150.1,233.93a61.3,61.3,0,0,1,3,10.46,69.86,69.86,0,0,1,1.24,16.26c-.56,14.36-5.39,28.08-13.76,36.19-13.66,13.25-31.56,6.56-40-14.95-5.07-13-5.54-28.38-2.1-41.47a58.84,58.84,0,0,1,2.75-8.1,41,41,0,0,1,8.86-13.37C1123.79,205.71,1141.68,212.41,1150.1,233.93Z" transform="translate(-339.14 -13.16)"/><path class="cls-5" d="M1154.35,260.65c-.55,14.35-5.38,28.08-13.76,36.19-12.88,12.47-29.51,7.26-38.41-11.37,9.31,14.37,24,17.48,35.56,6.23,8.38-8.11,13.21-21.84,13.76-36.19a69.65,69.65,0,0,0-1.24-16.24,59.72,59.72,0,0,0-3-10.48c-.48-1.23-1-2.38-1.54-3.51a47.26,47.26,0,0,1,4.39,8.65,60.26,60.26,0,0,1,3,10.47A69.15,69.15,0,0,1,1154.35,260.65Z" transform="translate(-339.14 -13.16)"/><path class="cls-6" d="M1132.74,281.54c-3.1,3-7,2.49-9.67-.85a12.91,12.91,0,0,1-2-3.49c-2.44-6.29-1.2-14.47,2.78-18.35s8.93-2,11.46,3.9a3.66,3.66,0,0,0,.18.46C1138,269.48,1136.71,277.69,1132.74,281.54Z" transform="translate(-339.14 -13.16)"/><path class="cls-24" d="M1132.74,281.54c-3.1,3-7,2.49-9.67-.85a4.9,4.9,0,0,1-.21-.51c-2.45-6.26-1.21-14.48,2.77-18.33,3.11-3,7-2.49,9.7.9a3.66,3.66,0,0,0,.18.46C1138,269.48,1136.71,277.69,1132.74,281.54Z" transform="translate(-339.14 -13.16)"/><path class="cls-6" d="M1111.41,259.77a3.36,3.36,0,0,1-5.2-.26,6.62,6.62,0,0,1-1.32-2.18c-1.37-3.51-.67-8.11,1.57-10.26,2-2,4.71-1.21,6.19,1.72a7.7,7.7,0,0,1,.33.71C1114.35,253,1113.65,257.62,1111.41,259.77Z" transform="translate(-339.14 -13.16)"/><path class="cls-24" d="M1111.41,259.77a3.36,3.36,0,0,1-5.2-.26,5.56,5.56,0,0,1-.34-.74c-1.37-3.52-.69-8.11,1.55-10.27a3.38,3.38,0,0,1,5.23.29,7.7,7.7,0,0,1,.33.71C1114.35,253,1113.65,257.62,1111.41,259.77Z" transform="translate(-339.14 -13.16)"/><path class="cls-6" d="M1112.07,240.82a1.86,1.86,0,0,1-2.81,0,3.42,3.42,0,0,1-.87-1.32c-.76-2-.38-4.55.87-5.74s2.64-.69,3.46.94a1.92,1.92,0,0,1,.22.43A5.79,5.79,0,0,1,1112.07,240.82Z" transform="translate(-339.14 -13.16)"/><path class="cls-24" d="M1112.07,240.82a1.86,1.86,0,0,1-2.81,0,1.5,1.5,0,0,1-.16-.34,5.81,5.81,0,0,1,.87-5.78,1.82,1.82,0,0,1,2.75,0,1.92,1.92,0,0,1,.22.43A5.79,5.79,0,0,1,1112.07,240.82Z" transform="translate(-339.14 -13.16)"/><path class="cls-6" d="M1142.8,258.53a1.9,1.9,0,0,1-2.88,0,3.37,3.37,0,0,1-.9-1.36c-.78-2-.39-4.67.9-5.9s2.71-.7,3.55,1a1.65,1.65,0,0,1,.22.44C1144.47,254.65,1144.05,257.3,1142.8,258.53Z" transform="translate(-339.14 -13.16)"/><path class="cls-24" d="M1142.8,258.53a1.9,1.9,0,0,1-2.88,0,1.87,1.87,0,0,1-.17-.35,6,6,0,0,1,.89-5.94,1.87,1.87,0,0,1,2.83,0,1.65,1.65,0,0,1,.22.44C1144.47,254.65,1144.05,257.3,1142.8,258.53Z" transform="translate(-339.14 -13.16)"/><path class="cls-6" d="M1136.7,238.78a3.57,3.57,0,0,1-4.75.54,6.58,6.58,0,0,1-2.33-3.18c-1.5-3.8-.73-8.78,1.68-11.14,1.94-1.88,4.37-1.49,6,.71a8.16,8.16,0,0,1,1.06,1.93C1139.86,231.46,1139.11,236.44,1136.7,238.78Z" transform="translate(-339.14 -13.16)"/><path class="cls-24" d="M1136.7,238.78a3.57,3.57,0,0,1-4.75.54,7.37,7.37,0,0,1-1.07-1.95c-1.49-3.8-.74-8.78,1.68-11.14a3.58,3.58,0,0,1,4.76-.52,8.16,8.16,0,0,1,1.06,1.93C1139.86,231.46,1139.11,236.44,1136.7,238.78Z" transform="translate(-339.14 -13.16)"/><path class="cls-9" d="M597,478.68a61.3,61.3,0,0,0-.81,31.36h0l0,.14a52.44,52.44,0,0,0,1.86,6.08l25.27,82.61c.49,1.61,1.72,2.29,2.74,1.51l.4-.3c1-.77,1.44-2.71,1-4.32l-7.13-23.2c-.84-2.75-.11-6.06,1.64-7.39h0c1.74-1.33,3.85-.18,4.69,2.57L638,604.81c.85,2.75,3,3.91,4.7,2.57h0c1.75-1.33,2.48-4.64,1.63-7.39l-8.06-26.25c-.85-2.75-.11-6.06,1.63-7.39h0c1.75-1.33,3.85-.18,4.7,2.57l13.27,43.2c.84,2.75,3,3.9,4.69,2.57h0c1.75-1.33,2.48-4.64,1.64-7.39l-17.76-57.82c-.85-2.75-.11-6.06,1.63-7.39h0c1.75-1.33,3.85-.18,4.7,2.58l10.92,35.55c.85,2.75,2.95,3.9,4.7,2.57h0c1.74-1.33,2.48-4.64,1.63-7.39l-9-29.32a4.21,4.21,0,0,1,1-4.32h0a4.23,4.23,0,0,0,1-4.32l-18.48-60.13v.15c-3.28-10-9.19-17.81-16.91-20.61C614.08,452.68,602,461.88,597,478.68Z" transform="translate(-339.14 -13.16)"/><path class="cls-10" d="M635.56,479.14c3.86,2.13,5.89,8.79,4.54,14.87s-5.59,9.27-9.45,7.13-5.89-8.78-4.53-14.86S631.7,477,635.56,479.14Z" transform="translate(-339.14 -13.16)"/><path class="cls-10" d="M614.34,467c2.16,1.2,3.3,4.92,2.54,8.33s-3.13,5.19-5.29,4-3.3-4.93-2.54-8.33S612.18,465.78,614.34,467Z" transform="translate(-339.14 -13.16)"/><path class="cls-10" d="M617.74,500.12a2.67,2.67,0,0,1,.86,2.8c-.26,1.14-1.05,1.74-1.78,1.34a2.66,2.66,0,0,1-.85-2.8C616.22,500.32,617,499.72,617.74,500.12Z" transform="translate(-339.14 -13.16)"/><path class="cls-10" d="M604.42,498.56c2.35,1.3,3.58,5.34,2.76,9s-3.39,5.64-5.74,4.34-3.58-5.34-2.75-9S602.08,497.26,604.42,498.56Z" transform="translate(-339.14 -13.16)"/><path class="cls-15" d="M1176.88,436.67c3.6,7.15,2.84,17.55-1.71,23.23s-11.15,4.46-14.76-2.69-2.83-17.56,1.71-23.24S1173.28,429.51,1176.88,436.67Z" transform="translate(-339.14 -13.16)"/><path class="cls-10" d="M1142.67,420.28c2,4,1.59,9.83-1,13s-6.25,2.5-8.26-1.51-1.59-9.83,1-13S1140.65,416.27,1142.67,420.28Z" transform="translate(-339.14 -13.16)"/><path class="cls-15" d="M1154.58,414a4.43,4.43,0,0,1-.32,4.37c-.86,1.07-2.1.84-2.78-.5a4.42,4.42,0,0,1,.33-4.37C1152.66,412.41,1153.9,412.64,1154.58,414Z" transform="translate(-339.14 -13.16)"/><path class="cls-15" d="M1177.11,392.18c2.19,4.35,1.72,10.67-1,14.12s-6.78,2.71-9-1.64-1.72-10.66,1-14.11S1174.92,387.83,1177.11,392.18Z" transform="translate(-339.14 -13.16)"/><path class="cls-15" d="M1172,379.81c-4.51.88-8.62-4.16-9.18-11.26S1165.5,355,1170,354.1s8.61,4.16,9.17,11.26S1176.54,378.93,1172,379.81Z" transform="translate(-339.14 -13.16)"/><path class="cls-10" d="M1192.93,350.44c-2.53.5-4.83-2.33-5.14-6.3s1.48-7.6,4-8.1,4.83,2.33,5.14,6.31S1195.45,350,1192.93,350.44Z" transform="translate(-339.14 -13.16)"/><path class="cls-15" d="M1190.75,365.56c-.84.16-1.62-.79-1.72-2.12s.5-2.55,1.34-2.72,1.62.78,1.73,2.12S1191.6,365.39,1190.75,365.56Z" transform="translate(-339.14 -13.16)"/><path class="cls-10" d="M1190.85,398.17c-2.74.53-5.24-2.53-5.58-6.84s1.61-8.25,4.35-8.78,5.23,2.52,5.57,6.84S1193.59,397.63,1190.85,398.17Z" transform="translate(-339.14 -13.16)"/><path class="cls-15" d="M1206.55,350.73c-2.14.42-4.08-2-4.35-5.32s1.25-6.42,3.39-6.84,4.08,2,4.34,5.33S1208.68,350.32,1206.55,350.73Z" transform="translate(-339.14 -13.16)"/><path class="cls-10" d="M1216.43,336.84c-1.19.23-2.28-1.1-2.43-3s.7-3.59,1.9-3.83,2.28,1.11,2.43,3S1217.63,336.6,1216.43,336.84Z" transform="translate(-339.14 -13.16)"/><path class="cls-15" d="M1215.4,344c-.4.08-.76-.37-.81-1s.23-1.21.63-1.29.77.37.82,1S1215.81,343.91,1215.4,344Z" transform="translate(-339.14 -13.16)"/><path class="cls-15" d="M1215.45,359.42c-1.3.25-2.48-1.2-2.64-3.24s.76-3.9,2.06-4.15,2.47,1.19,2.63,3.24S1216.74,359.17,1215.45,359.42Z" transform="translate(-339.14 -13.16)"/><path class="cls-15" d="M1123.66,575.42c-7.93,6.55-17.73,1.73-21.89-10.75s-1.1-27.91,6.83-34.46,17.73-1.73,21.89,10.75S1131.59,568.87,1123.66,575.42Z" transform="translate(-339.14 -13.16)"/><path class="cls-4" d="M1149.27,498.44c-4.44,3.67-9.93,1-12.26-6s-.61-15.63,3.83-19.3,9.93-1,12.26,6S1153.72,494.78,1149.27,498.44Z" transform="translate(-339.14 -13.16)"/><path class="cls-10" d="M1151.92,528.69c-1.49,1.23-3.33.33-4.12-2s-.2-5.25,1.29-6.48,3.33-.33,4.11,2S1153.41,527.46,1151.92,528.69Z" transform="translate(-339.14 -13.16)"/><path class="cls-4" d="M1166.45,588.74c-4.82,4-10.77,1.06-13.3-6.53s-.67-17,4.15-20.94,10.77-1,13.3,6.53S1171.27,584.77,1166.45,588.74Z" transform="translate(-339.14 -13.16)"/><path class="cls-4" d="M1122.66,699.32c.89,18.47-7.9,34.58-19.64,36s-22-12.45-22.84-30.92,7.91-34.57,19.64-36S1121.78,680.85,1122.66,699.32Z" transform="translate(-339.14 -13.16)"/><path class="cls-15" d="M1077,610.59c.5,10.34-4.43,19.36-11,20.14s-12.3-7-12.79-17.32,4.43-19.36,11-20.14S1076.53,600.24,1077,610.59Z" transform="translate(-339.14 -13.16)"/><path class="cls-10" d="M1101.58,621.32c.16,3.47-1.49,6.5-3.69,6.76s-4.13-2.34-4.3-5.81,1.49-6.5,3.69-6.76S1101.41,617.85,1101.58,621.32Z" transform="translate(-339.14 -13.16)"/><path class="cls-15" d="M1155.16,625c.54,11.22-4.8,21-11.93,21.85s-13.35-7.56-13.88-18.79,4.8-21,11.93-21.85S1154.62,613.78,1155.16,625Z" transform="translate(-339.14 -13.16)"/><path class="cls-10" d="M603.2,597.49c-.2,7.55-4.25,13.4-9.05,13.08s-8.51-6.7-8.3-14.24,4.26-13.4,9-13.08S603.41,590,603.2,597.49Z" transform="translate(-339.14 -13.16)"/><path class="cls-4" d="M519,971.39c-.2,7.55-4.25,13.4-9,13.08s-8.51-6.7-8.31-14.25,4.26-13.4,9-13.07S519.16,963.85,519,971.39Z" transform="translate(-339.14 -13.16)"/><path class="cls-10" d="M688.13,728.09c-.11,3.94-2.22,7-4.72,6.82s-4.43-3.49-4.33-7.43,2.22-7,4.72-6.81S688.24,724.16,688.13,728.09Z" transform="translate(-339.14 -13.16)"/><path class="cls-15" d="M507.18,560.11c-.1,3.93-2.21,7-4.71,6.81s-4.44-3.49-4.33-7.42,2.22-7,4.71-6.82S507.29,556.17,507.18,560.11Z" transform="translate(-339.14 -13.16)"/><path class="cls-4" d="M550,476.43c-.17,6.23-3.51,11.07-7.47,10.8s-7-5.53-6.86-11.76,3.52-11.07,7.47-10.8S550.19,470.2,550,476.43Z" transform="translate(-339.14 -13.16)"/><path class="cls-10" d="M567.88,943.07c-.1,3.93-2.22,7-4.71,6.81s-4.44-3.49-4.33-7.42,2.21-7,4.71-6.82S568,939.13,567.88,943.07Z" transform="translate(-339.14 -13.16)"/><path class="cls-6" d="M1096.31,158.71c0,4.36-2.25,7.89-5,7.89s-5-3.53-5-7.89,2.25-7.89,5-7.89S1096.31,154.35,1096.31,158.71Z" transform="translate(-339.14 -13.16)"/><path class="cls-10" d="M1080.48,208.26c0,3.36-1.73,6.09-3.87,6.09s-3.87-2.73-3.87-6.09,1.73-6.09,3.87-6.09S1080.48,204.9,1080.48,208.26Z" transform="translate(-339.14 -13.16)"/><path class="cls-6" d="M1191.09,236.25c0,2.06-1.06,3.74-2.37,3.74s-2.38-1.68-2.38-3.74,1.07-3.74,2.38-3.74S1191.09,234.19,1191.09,236.25Z" transform="translate(-339.14 -13.16)"/><ellipse class="cls-6" cx="918.11" cy="451.58" rx="2.38" ry="3.74"/><ellipse class="cls-10" cx="783.46" cy="324.62" rx="2.76" ry="4.35"/><path class="cls-15" d="M1241.62,590.52c0,2.4-1.23,4.35-2.76,4.35s-2.76-2-2.76-4.35,1.24-4.35,2.76-4.35S1241.62,588.12,1241.62,590.52Z" transform="translate(-339.14 -13.16)"/><path class="cls-15" d="M1265.81,276.94c0,3.72-1.92,6.73-4.28,6.73s-4.28-3-4.28-6.73,1.92-6.74,4.28-6.74S1265.81,273.22,1265.81,276.94Z" transform="translate(-339.14 -13.16)"/><path class="cls-10" d="M1211,521.3c0,3.72-1.92,6.73-4.28,6.73s-4.28-3-4.28-6.73,1.92-6.74,4.28-6.74S1211,517.58,1211,521.3Z" transform="translate(-339.14 -13.16)"/><ellipse class="cls-10" cx="865.86" cy="216.64" rx="3.32" ry="5.22"/><path class="cls-15" d="M1271.47,489.36c0,2.89-1.48,5.22-3.31,5.22s-3.32-2.33-3.32-5.22,1.49-5.22,3.32-5.22S1271.47,486.48,1271.47,489.36Z" transform="translate(-339.14 -13.16)"/></svg>