<?xml version="1.0" encoding="utf-8"?>
<!-- Generator: Adobe Illustrator 22.1.0, SVG Export Plug-In . SVG Version: 6.00 Build 0)  -->
<svg version="1.1" id="Layer_1" xmlns="http://www.w3.org/2000/svg" xmlns:xlink="http://www.w3.org/1999/xlink" x="0px" y="0px"
	 viewBox="0 0 375.6 337.8" style="enable-background:new 0 0 375.6 337.8;" xml:space="preserve">
<style type="text/css">
	.st0{fill:#5FB1E3;}
</style>
<title>logo</title>
<path class="st0" d="M199.6,144.6l-6.1,3.5c-12.2,7-27.8,2.9-34.9-9.4L94.2,27l28.2-16.3L199.6,144.6z"/>
<path class="st0" d="M168.8,146.6L168.8,146.6c12.9,7.4,29.3,3,36.7-9.8l61-105.7c1.6-2.7,0.6-6.2-2.1-7.7l-18.4-10.6
	c-2.7-1.6-6.2-0.6-7.7,2.1l-71.6,124C165.2,141.6,166.1,145,168.8,146.6C168.8,146.6,168.8,146.6,168.8,146.6z"/>
<path class="st0" d="M311.2,301.8c-0.3,0.1-0.6-0.1-0.6-0.4c0,0,0-0.1,0-0.1c-0.1-6.2,2.2-12.6,3.3-18.7c0-0.2,0.2-0.3,0.4-0.3
	c-0.2,0-0.3,0.1-0.4,0.3c-1.1,6.1-3.4,12.5-3.3,18.7C310.6,301.7,310.9,301.9,311.2,301.8C311.2,301.8,311.2,301.8,311.2,301.8z"/>
<path class="st0" d="M330.2,285.9c-0.2,0-0.3,0.2-0.3,0.4c-0.1,1,0,1.9,0.1,2.9c0,0.3,0.4,0.3,0.6,0.2c-0.2,0.1-0.6,0.1-0.6-0.2
	c-0.1-0.9-0.1-1.9-0.1-2.9C329.9,286.1,330,286,330.2,285.9z"/>
<path class="st0" d="M320.9,284.3c0,4.5-1.3,8.6-2.5,12.9c-0.1,0.4,0.3,0.6,0.6,0.5c-0.3,0.1-0.7-0.2-0.6-0.6
	C319.7,292.9,320.9,288.8,320.9,284.3c0-0.2,0.1-0.3,0.3-0.4C321.1,284,320.9,284.1,320.9,284.3z"/>
<path class="st0" d="M245.3,190.5c1-7.6,2.5-15.1,4.6-22.5c1.5-5.1,3.5-10.2,7.7-13.9c2.8-2.4,6.7-4.6,10.7-3.8
	c3.8,0.7,6.2,3.4,7.8,6.5l0,0c8,4.2,15.1,9.9,23.3,13.9c2.3,1.1,4,2,5,4.3c1.2,3.1,1.8,6.5,1.7,9.8c0,0.5,0,0.9,0,1.4
	c5.9,0.5,11.9,2.7,17.3,5.1c0-0.1,0.1-0.3,0.1-0.5c0.1-0.3,0.4-0.5,0.7-0.4c1-1.5,1.8-3.3,2.8-4.9c1.2-1.9,2.4-3.7,3.6-5.6
	c2.7-4.4,4.6-8.9,5-14c0-0.1,0-0.2,0.1-0.3l0,0c-0.2,0-0.4-0.2-0.3-0.5c0-0.2,0.2-0.3,0.3-0.3v-0.1c0.5-3.1,2-6.1,3.3-9
	c0.9-2.3,2-4.6,3.3-6.7c0.4-0.7,1.1-1.1,1.9-1.4c0.1-10.2-0.9-20.4-2.8-30.5c-1.9-11.2-6-21.9-12.1-31.4c-6-9.5-12.8-18.7-19.6-27.7
	c-6.4-8.6-13.4-17.1-22.4-23.5c0,0-0.1-0.1-0.1-0.1c-0.1,0-0.3,0-0.4-0.1c-3.1-1.5-6-3.3-8.8-5.3c-1.9-1.3-4.8-3.1-5.8-5.2
	c-1.1-2.3-0.5-4.5,0.9-6.4c-0.5,0.3-1.1,0.5-1.6,0.6c-6.5,2-13,0.9-19.1-1.5c-3.7-1.5-7.4-3.1-11-4.6v202.6
	C242.8,206.7,244.1,198.6,245.3,190.5z"/>
<path class="st0" d="M346.8,211.8c0.4-2.1,0.7-4.1,0.9-6.3c0.3-2.8,0.8-6-0.2-8.6c-1.2-3-4-4.6-6.8-6.1c-5.9-3-12.1-5.2-18.5-6.8
	l0,0c6.4,1.5,12.6,3.8,18.5,6.8c2.9,1.5,5.6,3.1,6.8,6.1c1.1,2.7,0.5,5.9,0.2,8.6C347.5,207.6,347.2,209.7,346.8,211.8
	c-0.2,0.3-0.3,0.6-0.4,0.9c-0.1,0.2,0,0.5,0.1,0.7c-1,5.1-2.2,10.1-3.4,15.1c-0.1,0.7-0.3,1.3-0.4,2c0.1-0.6,0.3-1.2,0.4-1.8
	c1.2-5.1,2.5-10.2,3.4-15.3c-0.2-0.2-0.2-0.5-0.1-0.7C346.5,212.4,346.7,212.1,346.8,211.8z"/>
<path class="st0" d="M325.3,293.5c-0.3,0-0.6-0.1-0.6-0.4c0-2.4,1-4.7,1.2-7c0-0.1,0.1-0.2,0.2-0.3c-0.1,0-0.2,0.1-0.2,0.3
	c-0.2,2.4-1.2,4.7-1.2,7C324.7,293.4,325,293.6,325.3,293.5C325.3,293.5,325.3,293.5,325.3,293.5z"/>
<path class="st0" d="M257.1,333.5v4.4h5.3C260.3,336.7,258.6,335.2,257.1,333.5z"/>
<path class="st0" d="M325.7,302.5c4.2-2.3,7.3-6.1,8.6-10.7c1.3-4.3,2-8.8,2.1-13.3l0,0c-0.1,4.5-0.8,8.9-2,13.3
	C333.1,296.4,329.9,300.2,325.7,302.5c-4,2.1-8.1,4-12.3,5.6c-0.8,0.3-3.9,1.7-6.3,2.4c2.4-0.8,5.6-2.1,6.3-2.5
	C317.7,306.5,321.8,304.7,325.7,302.5z"/>
<path class="st0" d="M54.5,285.9c0.2,0,0.3,0.2,0.3,0.4c0.1,1,0,1.9-0.1,2.9c0,0.3-0.4,0.3-0.6,0.2c0.2,0.1,0.6,0.1,0.6-0.2
	c0.1-1,0.1-1.9,0.1-2.9C54.7,286.1,54.6,286,54.5,285.9z"/>
<path class="st0" d="M63.7,284.3c0,4.5,1.2,8.6,2.4,12.9c0.1,0.4-0.3,0.6-0.6,0.5c0.3,0.1,0.7-0.2,0.6-0.6
	C64.9,292.9,63.7,288.8,63.7,284.3c0-0.2-0.1-0.3-0.3-0.4C63.6,284,63.7,284.1,63.7,284.3z"/>
<path class="st0" d="M119.6,189.6c-1-7.6-2.5-15.1-4.6-22.5c-1.5-5.1-3.5-10.2-7.7-13.9c-2.8-2.4-6.7-4.6-10.7-3.8
	c-3.8,0.7-6.2,3.4-7.8,6.5l0,0c-8,4.2-15.1,9.9-23.3,13.9c-2.3,1.1-4,2-5,4.3c-1.3,3.1-1.9,6.5-1.8,9.8c0,0.5,0,0.9,0,1.4
	c-5.9,0.5-11.9,2.7-17.3,5.1c0-0.2-0.1-0.3-0.1-0.5c-0.1-0.3-0.4-0.5-0.7-0.4c-1-1.5-1.8-3.3-2.8-4.9c-1.2-1.9-2.4-3.7-3.6-5.6
	c-2.7-4.4-4.7-8.9-5-14c0-0.1-0.1-0.2-0.1-0.3l0,0c0.2,0,0.4-0.2,0.3-0.5c0-0.2-0.2-0.3-0.3-0.3v-0.1c-0.5-3.1-2-6.1-3.3-9
	c-0.9-2.3-2-4.6-3.3-6.7c-0.4-0.7-1.1-1.1-1.8-1.4c-0.1-10.2,0.9-20.4,2.8-30.5c1.9-11.2,6-21.9,12.1-31.4
	c6-9.5,12.8-18.7,19.6-27.7c6.4-8.6,13.5-17.2,22.4-23.6c0,0,0.1-0.1,0.1-0.1c0.1,0,0.3,0,0.4-0.1c3.1-1.5,6-3.3,8.8-5.3
	c1.9-1.3,4.8-3.1,5.8-5.2c1.1-2.3,0.4-4.5-0.9-6.4c0.5,0.3,1.1,0.5,1.6,0.6c6.5,2,13,0.9,19.1-1.5c3.7-1.5,7.4-3.1,11-4.6v202.7
	C122,205.7,120.7,197.7,119.6,189.6z"/>
<path class="st0" d="M37.8,211.8c-0.4-2.1-0.7-4.1-0.9-6.3c-0.3-2.8-0.8-6,0.2-8.6c1.2-3,4-4.6,6.8-6.1c5.9-3,12.1-5.2,18.5-6.8l0,0
	c-6.4,1.5-12.6,3.8-18.5,6.8c-2.9,1.5-5.7,3.1-6.8,6.1c-1.1,2.7-0.5,5.9-0.2,8.6C37.1,207.6,37.4,209.7,37.8,211.8
	c0.1,0.3,0.3,0.6,0.4,0.9c0.1,0.2,0,0.5-0.1,0.7c1,5.1,2.2,10.1,3.4,15.1l0.4,2c-0.1-0.6-0.3-1.2-0.4-1.8
	c-1.2-5.1-2.5-10.2-3.4-15.3c0.2-0.2,0.2-0.5,0.1-0.7C38.1,212.4,38,212.1,37.8,211.8z"/>
<path class="st0" d="M59.3,293.5c0.3,0,0.6-0.1,0.6-0.4c0-2.4-1-4.7-1.2-7c0-0.1-0.1-0.2-0.2-0.3c0.1,0,0.2,0.1,0.2,0.3
	c0.2,2.4,1.2,4.7,1.2,7C59.9,293.4,59.6,293.6,59.3,293.5z"/>
<path class="st0" d="M58.9,302.5c-4.2-2.3-7.3-6.1-8.6-10.7c-1.2-4.3-1.9-8.8-2-13.3l0,0c0.1,4.5,0.8,8.9,2.1,13.3
	C51.6,296.4,54.8,300.2,58.9,302.5c4,2.1,8.1,4,12.3,5.6c0.7,0.3,3.9,1.7,6.3,2.4c-2.4-0.8-5.6-2.1-6.3-2.5
	C67,306.5,62.9,304.6,58.9,302.5z"/>
<path class="st0" d="M272.1,0c0.7,1.3,1.1,2.8,1.1,4.3c-0.1,1.3-0.6,2.6-1.4,3.7c3.7-1.9,8.2-3.2,12.1-1.1c2.5,1.5,4.6,3.5,6.1,5.8
	c1.6,2.3,3.3,4.5,5,6.8c0.2,0,0.4,0.2,0.3,0.4l0.2,0.3c0.4,0.5-0.3,1-0.9,0.9c22,16.7,41.7,35.8,53.7,58.1
	c6.4,12,10.9,24.6,13.6,37.5c1.5,6,2.3,12.1,2.6,18.2c0.1,2.9-0.1,5.9-0.6,8.8c-0.2,1.4-0.6,2.8-1,4.1c-0.2,0.5-0.4,1-0.5,1.4
	c0.7,0.6,1,1.4,0.8,2.2c-0.5,2.2-1.2,4.3-2.2,6.4c-0.9,2.6-2.1,5.1-3.6,7.6c-0.3,0.4-0.9,0.5-1.3,0.3c-0.1,0-0.2-0.1-0.3-0.2
	c1.8,8.3-2.3,17.2-6.5,24.7c-2.2,4.1-4.8,8.1-7.6,12c-0.7,0.9-5.6,6.2-7.3,9c-0.1,0.6-0.3,1.2-0.4,1.9c0.3,0.2,0.2,0.6,0,0.8
	c-0.1,0-0.1,0.1-0.2,0.1c-0.5,2.3-1.1,4.5-1.8,6.8c-2.3,7.9-4,15.7-5.4,23.6c-1.4,8-3.5,15.9-4.2,23.8c-0.6,5.9-0.4,11.8-1.4,17.6
	c-1,5.5-3.1,11.1-8.1,15.2c-2.7,2.3-6.7,3.7-10.2,5.1c-4.8,2-9.8,3.7-14.8,5.2c-1.7,0.5-5.6,1.9-7.7,1.1c-0.2,0.6-0.5,1.1-0.7,1.7
	c-4.6,9.4-19.2,12.7-28.5,18.6c-0.2,0.1-0.4,0.2-0.7,0.2c-1.2,2.1-3.2,3.8-5.7,4.8h131V0H272.1z"/>
<path class="st0" d="M111.2,337.8c-2.1-1-3.8-2.7-4.8-4.7c-0.2,0-0.4-0.1-0.6-0.2c-7.8-5.9-20-9.2-23.9-18.6
	c-0.2-0.5-0.4-1.1-0.6-1.7c-1.7,0.9-5-0.6-6.5-1.1c-4.2-1.5-8.4-3.2-12.4-5.2c-3-1.4-6.3-2.8-8.6-5.1c-4.2-4.1-6-9.7-6.8-15.2
	c-0.9-5.8-0.8-11.8-1.2-17.6c-0.6-8-2.3-15.9-3.5-23.8c-1.2-8-2.6-15.8-4.5-23.7c-0.5-2.2-1.1-4.5-1.5-6.8c-0.1,0-0.1-0.1-0.1-0.1
	c-0.2-0.2-0.3-0.6,0-0.8c-0.1-0.6-0.2-1.2-0.3-1.9c-1.4-2.8-5.5-8.1-6.1-9c-2.4-3.9-4.5-7.9-6.4-12c-3.6-7.5-7-16.4-5.5-24.7
	c-0.1,0.1-0.1,0.1-0.2,0.2c-0.4,0.2-0.9,0.1-1.1-0.3c-1.2-2.4-2.3-4.9-3-7.6c-0.8-2.1-1.4-4.2-1.8-6.4c-0.1-0.8,0.1-1.6,0.7-2.3
	c-0.1-0.5-0.2-1-0.4-1.5c-0.4-1.4-0.6-2.7-0.8-4.1c-0.4-2.9-0.6-5.8-0.5-8.8c0.2-6.1,0.9-12.2,2.2-18.3c2.3-12.9,6.1-25.5,11.4-37.5
	c10.1-22.2,26.6-41.4,45.1-58.1c-0.5,0.1-1.1-0.4-0.8-0.9l0.2-0.3c0-0.2,0.1-0.4,0.3-0.4c1.4-2.3,2.8-4.5,4.2-6.8
	c1.2-2.3,3-4.3,5.1-5.8c3.2-2.1,7-0.8,10.1,1.1c-0.7-1.1-1.1-2.4-1.2-3.8c0-1.5,0.3-2.9,0.9-4.3H0v337.8H111.2z"/>
</svg>
